<?xml version="1.0" encoding="UTF-8" standalone="no"?>
<!-- Created with Inkscape (http://www.inkscape.org/) -->

<svg
   version="1.1"
   id="svg301"
   xml:space="preserve"
   width="450"
   height="280"
   viewBox="0 0 450.00002 279.99999"
   sodipodi:docname="logo-medicel-white.svg"
   inkscape:version="1.1 (c4e8f9e, 2021-05-24)"
   xmlns:inkscape="http://www.inkscape.org/namespaces/inkscape"
   xmlns:sodipodi="http://sodipodi.sourceforge.net/DTD/sodipodi-0.dtd"
   xmlns="http://www.w3.org/2000/svg"
   xmlns:svg="http://www.w3.org/2000/svg"><defs
     id="defs305"><linearGradient
       x1="0"
       y1="0"
       x2="1"
       y2="0"
       gradientUnits="userSpaceOnUse"
       gradientTransform="matrix(0,310.1933,310.1933,0,155.09627,2.4033494)"
       spreadMethod="pad"
       id="linearGradient445"><stop
         style="stop-opacity:1;stop-color:#003399"
         offset="0"
         id="stop4427" /><stop
         style="stop-opacity:1;stop-color:#006699"
         offset="0.349162"
         id="stop4429" /><stop
         style="stop-opacity:1;stop-color:#0faad3"
         offset="1"
         id="stop4431" /></linearGradient><clipPath
       clipPathUnits="userSpaceOnUse"
       id="clipPath315"><path
         d="M 0,315 H 500 V 0 H 0 Z"
         id="path313" /></clipPath><linearGradient
       x1="0"
       y1="0"
       x2="1"
       y2="0"
       gradientUnits="userSpaceOnUse"
       gradientTransform="matrix(0,310.1933,310.1933,0,155.09627,2.4033494)"
       spreadMethod="pad"
       id="linearGradient445-5"><stop
         style="stop-opacity:1;stop-color:#003399"
         offset="0"
         id="stop439" /><stop
         style="stop-opacity:1;stop-color:#006699"
         offset="0.349162"
         id="stop441" /><stop
         style="stop-opacity:1;stop-color:#0faad3"
         offset="1"
         id="stop443" /></linearGradient><clipPath
       clipPathUnits="userSpaceOnUse"
       id="clipPath455"><path
         d="M 0,315 H 500 V 0 H 0 Z"
         id="path453" /></clipPath></defs><sodipodi:namedview
     id="namedview303"
     pagecolor="#ffffff"
     bordercolor="#666666"
     borderopacity="1.0"
     inkscape:pageshadow="2"
     inkscape:pageopacity="0.0"
     inkscape:pagecheckerboard="0"
     showgrid="false"
     units="px"
     inkscape:snap-nodes="false"
     inkscape:snap-object-midpoints="true"
     inkscape:object-nodes="false"
     inkscape:snap-others="false"
     inkscape:snap-global="false"
     inkscape:zoom="0.61624354"
     inkscape:cx="344.8312"
     inkscape:cy="227.18291"
     inkscape:window-width="1880"
     inkscape:window-height="968"
     inkscape:window-x="0"
     inkscape:window-y="25"
     inkscape:window-maximized="0"
     inkscape:current-layer="g307"
     inkscape:snap-path-clip="true"
     inkscape:snap-path-mask="true"
     gridtolerance="10000"
     guidetolerance="10000"
     inkscape:snap-perpendicular="true"
     inkscape:snap-tangential="true" /><g
     id="g307"
     inkscape:groupmode="layer"
     inkscape:label="logo "
     transform="matrix(1.3333333,0,0,-1.3333333,0,420)"><g
       id="g309"
       transform="matrix(0.67262726,0,0,0.67262726,1.5,103.23874)"
       style="fill:#ffffff"><g
         id="g311"
         clip-path="url(#clipPath315)"
         style="fill:#ffffff"><g
           id="g317"
           transform="translate(256.8535,110.9414)"
           style="fill:#ffffff"><path
             d="m 0,0 c -2.092,-0.528 -3.968,-1.473 -6.186,-2.007 -9.079,-2.189 -15.995,-4.34 -19.93,5.126 -2.669,6.423 -11.629,6.11 -14.156,-0.021 -2.531,-6.128 3.596,-12.667 10.019,-9.999 9.465,3.935 13.408,-1.117 18.299,-9.075 1.195,-1.942 1.86,-3.934 2.97,-5.786 6.298,-10.497 21.627,-8.931 26.121,1.954 C 21.626,-8.923 11.872,2.997 0,0"
             style="fill:#ffffff;fill-opacity:1;fill-rule:evenodd;stroke:none"
             id="path319" /></g><g
           id="g321"
           transform="translate(53.3101,110.9414)"
           style="fill:#ffffff"><path
             d="m 0,0 c 2.092,-0.528 3.968,-1.473 6.186,-2.007 9.079,-2.189 15.995,-4.34 19.931,5.126 2.668,6.423 11.628,6.11 14.155,-0.021 2.531,-6.128 -3.596,-12.667 -10.018,-9.999 -9.466,3.935 -13.409,-1.117 -18.3,-9.075 -1.195,-1.942 -1.859,-3.934 -2.97,-5.786 -6.299,-10.497 -21.626,-8.931 -26.121,1.954 C -21.626,-8.923 -11.872,2.997 0,0"
             style="fill:#ffffff;fill-opacity:1;fill-rule:evenodd;stroke:none"
             id="path323" /></g><g
           id="g325"
           transform="translate(258.2578,206.3423)"
           style="fill:#ffffff"><path
             d="m 0,0 c -1.931,0.487 -3.662,1.359 -5.71,1.852 -8.38,2.021 -14.764,4.006 -18.397,-4.732 -2.463,-5.928 -10.733,-5.639 -13.067,0.02 -2.335,5.656 3.32,11.693 9.248,9.23 8.738,-3.632 12.377,1.03 16.892,8.376 1.103,1.793 1.716,3.632 2.742,5.341 5.813,9.69 19.962,8.245 24.11,-1.803 C 19.962,8.236 10.958,-2.767 0,0"
             style="fill:#ffffff;fill-opacity:1;fill-rule:evenodd;stroke:none"
             id="path327" /></g><g
           id="g329"
           transform="translate(52.437,206.3423)"
           style="fill:#ffffff"><path
             d="M 0,0 C 1.931,0.487 3.663,1.359 5.71,1.852 14.09,3.873 20.474,5.858 24.107,-2.88 26.57,-8.808 34.84,-8.519 37.174,-2.86 39.51,2.796 33.854,8.833 27.926,6.37 19.188,2.738 15.549,7.4 11.034,14.746 9.931,16.539 9.318,18.378 8.292,20.087 2.479,29.777 -11.669,28.332 -15.818,18.284 -19.962,8.236 -10.958,-2.767 0,0"
             style="fill:#ffffff;fill-opacity:1;fill-rule:evenodd;stroke:none"
             id="path331" /></g><g
           id="g333"
           transform="translate(215.4492,81.3916)"
           style="fill:#ffffff"><path
             d="m 0,0 c -3.272,-3.271 -3.272,-8.579 0,-11.849 3.272,-3.272 8.577,-3.272 11.851,0 3.272,3.27 3.272,8.578 0,11.849 C 8.577,3.271 3.272,3.271 0,0"
             style="fill:#ffffff;fill-opacity:1;fill-rule:evenodd;stroke:none"
             id="path335" /></g><g
           id="g337"
           transform="translate(78.8628,81.3916)"
           style="fill:#ffffff"><path
             d="m 0,0 c -3.27,-3.268 -3.27,-8.575 0,-11.849 3.273,-3.271 8.578,-3.271 11.851,0 3.27,3.274 3.27,8.581 0,11.849 C 8.578,3.273 3.273,3.273 0,0"
             style="fill:#ffffff;fill-opacity:1;fill-rule:evenodd;stroke:none"
             id="path339" /></g><g
           id="g341"
           transform="translate(284.8467,146.0107)"
           style="fill:#ffffff"><path
             d="m 0,0 c -2.984,0 -5.404,-2.417 -5.404,-5.401 0,-2.986 2.42,-5.404 5.404,-5.404 2.984,0 5.403,2.418 5.403,5.404 C 5.403,-2.417 2.984,0 0,0"
             style="fill:#ffffff;fill-opacity:1;fill-rule:evenodd;stroke:none"
             id="path343" /></g><g
           id="g345"
           transform="translate(284.667,181.4653)"
           style="fill:#ffffff"><path
             d="m 0,0 c -2.984,0 -5.404,-2.417 -5.404,-5.401 0,-2.986 2.42,-5.404 5.404,-5.404 2.983,0 5.403,2.418 5.403,5.404 C 5.403,-2.417 2.983,0 0,0"
             style="fill:#ffffff;fill-opacity:1;fill-rule:evenodd;stroke:none"
             id="path347" /></g><g
           id="g349"
           transform="translate(199.2417,97.6006)"
           style="fill:#ffffff"><path
             d="m 0,0 c -2.111,-2.112 -2.111,-5.533 0,-7.642 2.11,-2.11 5.533,-2.11 7.641,0 2.111,2.109 2.111,5.53 0,7.642 C 5.533,2.108 2.11,2.108 0,0"
             style="fill:#ffffff;fill-opacity:1;fill-rule:evenodd;stroke:none"
             id="path351" /></g><g
           id="g353"
           transform="translate(137.4287,101.2061)"
           style="fill:#ffffff"><path
             d="m 0,0 c -6.86,2.83 -14.18,-4.028 -11.194,-11.213 4.403,-10.595 -4.837,-21.552 -13.743,-27.027 -2.174,-1.334 -4.405,-2.078 -6.476,-3.32 -11.746,-7.052 -9.997,-24.201 2.186,-29.231 12.181,-5.029 25.522,5.892 22.169,19.175 -0.591,2.34 -1.646,4.439 -2.246,6.924 -2.45,10.159 -1.27,24.446 9.326,28.848 C 7.209,-12.858 6.859,-2.831 0,0"
             style="fill:#ffffff;fill-opacity:1;fill-rule:evenodd;stroke:none"
             id="path355" /></g><g
           id="g357"
           transform="translate(203.9761,58.7139)"
           style="fill:#ffffff"><path
             d="m 0,0 c -2.073,1.243 -4.305,1.977 -6.483,3.31 -8.918,5.453 -18.185,16.388 -13.806,26.995 2.97,7.193 -4.364,14.033 -11.218,11.187 -6.851,-2.849 -7.18,-12.875 0.014,-15.842 10.605,-4.382 11.82,-18.662 9.394,-28.829 -0.594,-2.485 -1.649,-4.588 -2.233,-6.928 C -27.653,-23.4 -14.288,-34.29 -2.118,-29.235 10.053,-24.176 11.765,-7.021 0,0"
             style="fill:#ffffff;fill-opacity:1;fill-rule:evenodd;stroke:none"
             id="path359" /></g><g
           id="g361"
           transform="translate(155.0679,56.8638)"
           style="fill:#ffffff"><path
             d="m 0,0 c -4.626,0 -8.378,-3.754 -8.378,-8.379 0,-4.627 3.752,-8.377 8.378,-8.377 4.628,0 8.381,3.75 8.381,8.377 C 8.381,-3.754 4.628,0 0,0"
             style="fill:#ffffff;fill-opacity:1;fill-rule:evenodd;stroke:none"
             id="path363" /></g><g
           id="g365"
           transform="translate(155.0674,85.1274)"
           style="fill:#ffffff"><path
             d="m 0,0 c -2.983,0 -5.402,-2.417 -5.402,-5.404 0,-2.983 2.419,-5.404 5.402,-5.404 2.986,0 5.405,2.421 5.405,5.404 C 5.405,-2.417 2.986,0 0,0"
             style="fill:#ffffff;fill-opacity:1;fill-rule:evenodd;stroke:none"
             id="path367" /></g><g
           id="g369"
           transform="translate(155.0674,113.3906)"
           style="fill:#ffffff"><path
             d="m 0,0 c -2.983,0 -5.402,-2.416 -5.402,-5.404 0,-2.983 2.419,-5.404 5.402,-5.404 2.986,0 5.405,2.421 5.405,5.404 C 5.405,-2.416 2.986,0 0,0"
             style="fill:#ffffff;fill-opacity:1;fill-rule:evenodd;stroke:none"
             id="path371" /></g><g
           id="g373"
           transform="translate(99.2798,97.6006)"
           style="fill:#ffffff"><path
             d="m 0,0 c -2.111,-2.109 -2.111,-5.53 0,-7.642 2.109,-2.109 5.53,-2.109 7.642,0 C 9.75,-5.53 9.75,-2.109 7.642,0 5.53,2.11 2.109,2.11 0,0"
             style="fill:#ffffff;fill-opacity:1;fill-rule:evenodd;stroke:none"
             id="path375" /></g><g
           id="g377"
           transform="translate(199.2417,218.127)"
           style="fill:#ffffff"><path
             d="m 0,0 c -2.111,2.112 -2.111,5.532 0,7.642 2.11,2.11 5.533,2.11 7.641,0 C 9.752,5.532 9.752,2.112 7.641,0 5.533,-2.108 2.11,-2.108 0,0"
             style="fill:#ffffff;fill-opacity:1;fill-rule:evenodd;stroke:none"
             id="path379" /></g><g
           id="g381"
           transform="translate(137.4287,214.521)"
           style="fill:#ffffff"><path
             d="m 0,0 c -6.86,-2.83 -14.18,4.028 -11.194,11.213 4.403,10.595 -4.837,21.553 -13.743,27.027 -2.174,1.334 -4.405,2.078 -6.476,3.32 -11.746,7.052 -9.997,24.201 2.186,29.231 C -17.046,75.82 -3.705,64.9 -7.058,51.617 -7.649,49.276 -8.704,47.178 -9.304,44.693 -11.754,34.534 -10.574,20.246 0.022,15.844 7.209,12.858 6.859,2.831 0,0"
             style="fill:#ffffff;fill-opacity:1;fill-rule:evenodd;stroke:none"
             id="path383" /></g><g
           id="g385"
           transform="translate(204.1436,256.0205)"
           style="fill:#ffffff"><path
             d="m 0,0 c -2.073,-1.243 -4.305,-1.977 -6.483,-3.31 -8.918,-5.453 -18.185,-16.388 -13.806,-26.995 2.97,-7.193 -4.364,-14.033 -11.218,-11.187 -6.851,2.849 -7.18,12.875 0.014,15.842 10.605,4.382 11.82,18.662 9.394,28.829 -0.594,2.485 -1.649,4.588 -2.233,6.928 C -27.653,23.4 -14.288,34.29 -2.118,29.235 10.053,24.176 11.765,7.021 0,0"
             style="fill:#ffffff;fill-opacity:1;fill-rule:evenodd;stroke:none"
             id="path387" /></g><g
           id="g389"
           transform="translate(155.0679,258.8633)"
           style="fill:#ffffff"><path
             d="m 0,0 c -4.626,0 -8.378,3.754 -8.378,8.38 0,4.626 3.752,8.376 8.378,8.376 4.628,0 8.381,-3.75 8.381,-8.376 C 8.381,3.754 4.628,0 0,0"
             style="fill:#ffffff;fill-opacity:1;fill-rule:evenodd;stroke:none"
             id="path391" /></g><g
           id="g393"
           transform="translate(155.0674,230.6001)"
           style="fill:#ffffff"><path
             d="m 0,0 c -2.983,0 -5.402,2.416 -5.402,5.404 0,2.983 2.419,5.404 5.402,5.404 2.986,0 5.405,-2.421 5.405,-5.404 C 5.405,2.416 2.986,0 0,0"
             style="fill:#ffffff;fill-opacity:1;fill-rule:evenodd;stroke:none"
             id="path395" /></g><g
           id="g397"
           transform="translate(155.0674,202.3364)"
           style="fill:#ffffff"><path
             d="m 0,0 c -2.983,0 -5.402,2.417 -5.402,5.404 0,2.983 2.419,5.404 5.402,5.404 2.986,0 5.405,-2.421 5.405,-5.404 C 5.405,2.417 2.986,0 0,0"
             style="fill:#ffffff;fill-opacity:1;fill-rule:evenodd;stroke:none"
             id="path399" /></g><g
           id="g401"
           transform="translate(99.2798,218.1265)"
           style="fill:#ffffff"><path
             d="m 0,0 c -2.111,2.109 -2.111,5.53 0,7.642 2.109,2.109 5.53,2.109 7.642,0 C 9.75,5.53 9.75,2.109 7.642,0 5.53,-2.11 2.109,-2.11 0,0"
             style="fill:#ffffff;fill-opacity:1;fill-rule:evenodd;stroke:none"
             id="path403" /></g><g
           id="g405"
           transform="translate(25.5337,181.4653)"
           style="fill:#ffffff"><path
             d="m 0,0 c -2.985,0 -5.404,-2.417 -5.404,-5.401 0,-2.986 2.419,-5.404 5.404,-5.404 2.984,0 5.403,2.418 5.403,5.404 C 5.403,-2.417 2.984,0 0,0"
             style="fill:#ffffff;fill-opacity:1;fill-rule:evenodd;stroke:none"
             id="path407" /></g><g
           id="g409"
           transform="translate(25.3525,146.2163)"
           style="fill:#ffffff"><path
             d="m 0,0 c -2.984,0 -5.404,-2.42 -5.404,-5.405 0,-2.984 2.42,-5.402 5.404,-5.402 2.983,0 5.401,2.418 5.401,5.402 C 5.401,-2.42 2.983,0 0,0"
             style="fill:#ffffff;fill-opacity:1;fill-rule:evenodd;stroke:none"
             id="path411" /></g><g
           id="g413"
           transform="translate(104.4263,190.582)"
           style="fill:#ffffff"><path
             d="m 0,0 v -63.342 h -6.425 v 50.675 L -31.31,-55.289 h -3.167 l -24.885,42.35 v -50.403 h -6.424 V 0 h 5.519 L -32.757,-46.963 -5.521,0 Z"
             style="fill:#ffffff;fill-opacity:1;fill-rule:nonzero;stroke:none"
             id="path415" /></g><g
           id="g417"
           transform="translate(170.3062,133.0312)"
           style="fill:#ffffff"><path
             d="M 0,0 V -5.792 H -44.792 V 57.551 H -1.358 V 51.76 H -38.097 V 29.228 H -5.339 V 23.527 H -38.097 V 0 Z"
             style="fill:#ffffff;fill-opacity:1;fill-rule:nonzero;stroke:none"
             id="path419" /></g><g
           id="g421"
           transform="translate(211.9331,133.0312)"
           style="fill:#ffffff"><path
             d="M 0,0 C 16.831,0 27.69,10.677 27.69,25.88 27.69,41.082 16.831,51.76 0,51.76 H -18.731 V 0 Z m -25.427,57.551 h 25.79 c 20.269,0 33.932,-13.03 33.932,-31.671 0,-18.641 -13.663,-31.672 -33.932,-31.672 h -25.79 z"
             style="fill:#ffffff;fill-opacity:1;fill-rule:nonzero;stroke:none"
             id="path423" /></g><path
           d="m 261.706,190.582 h 6.696 V 127.24 h -6.696 z"
           style="fill:#ffffff;fill-opacity:1;fill-rule:nonzero;stroke:none"
           id="path425" /></g></g><g
       id="g427"
       transform="matrix(0.67262726,0,0,0.67262726,1.5,103.23874)"
       style="fill:#ffffff"><g
         id="g429"
         style="fill:#ffffff"><g
           id="g435"
           style="fill:#ffffff"><g
             id="g437"
             style="fill:#ffffff"><path
               d="M 0,157.499 C 0,71.979 69.576,2.403 155.097,2.403 v 0 c 85.522,0 155.095,69.576 155.095,155.096 v 0 c 0,85.522 -69.573,155.098 -155.095,155.098 v 0 C 69.576,312.597 0,243.021 0,157.499 m 10.522,0 c 0,79.718 64.856,144.574 144.575,144.574 v 0 c 79.717,0 144.574,-64.856 144.574,-144.574 v 0 c 0,-79.717 -64.857,-144.574 -144.574,-144.574 v 0 c -79.719,0 -144.575,64.857 -144.575,144.574"
               style="fill:#ffffff;stroke:none"
               id="path447" /></g></g></g></g><g
       id="g449"
       transform="translate(-41.529262,40.489925)"
       style="fill:#ffffff"><g
         id="g451"
         clip-path="url(#clipPath455)"
         style="fill:#ffffff"><g
           id="g457"
           transform="matrix(0.67262726,0,0,0.67262726,262.11129,169.63675)"
           style="fill:#ffffff"><path
             d="m 0,0 c 0,18.551 14.116,32.215 33.21,32.215 9.228,0 17.554,-3.077 23.165,-9.231 L 52.122,18.732 C 46.964,23.98 40.63,26.242 33.39,26.242 18.097,26.242 6.604,15.022 6.604,0 c 0,-15.021 11.493,-26.242 26.786,-26.242 7.24,0 13.574,2.263 18.732,7.6 l 4.253,-4.251 C 50.764,-29.047 42.438,-32.214 33.119,-32.214 14.116,-32.214 0,-18.551 0,0"
             style="fill:#ffffff;fill-opacity:1;fill-rule:nonzero;stroke:none"
             id="path459" /></g><g
           id="g461"
           transform="matrix(0.67262726,0,0,0.67262726,340.08224,152.22896)"
           style="fill:#ffffff"><path
             d="m 0,0 v -5.791 h -44.792 v 63.343 h 43.435 v -5.791 h -36.74 V 29.229 H -5.339 V 23.528 H -38.097 V 0 Z"
             style="fill:#ffffff;fill-opacity:1;fill-rule:nonzero;stroke:none"
             id="path463" /></g><g
           id="g465"
           transform="matrix(0.67262726,0,0,0.67262726,350.97954,190.94014)"
           style="fill:#ffffff"><path
             d="m 0,0 h 6.695 v -57.552 h 35.473 v -5.791 H 0 Z"
             style="fill:#ffffff;fill-opacity:1;fill-rule:nonzero;stroke:none"
             id="path467" /></g></g></g></g></svg>
